<?xml version="1.0" encoding="utf-8"?>
<!-- Generator: Adobe Illustrator 21.0.2, SVG Export Plug-In . SVG Version: 6.00 Build 0)  -->
<svg version="1.1" id="Calque_1" xmlns="http://www.w3.org/2000/svg" xmlns:xlink="http://www.w3.org/1999/xlink" x="0px" y="0px"
	 viewBox="0 0 112.3 112.3" style="enable-background:new 0 0 112.3 112.3;" xml:space="preserve">
<style type="text/css">
	.st0{fill:#FFFFFF;}
</style>
<path class="st0" d="M56.2,0C25.2,0,0,25.1,0,56.2c0,31,25.2,56.2,56.2,56.2c31,0,56.2-25.2,56.2-56.2C112.3,25.1,87.2,0,56.2,0z
	 M72.2,27.9c0,0-6,0-6.6,0h-3.4c-0.8,0-2.9-0.2-3.5,0.8c-0.4,0.7-0.7,1.5-0.7,2.4c0,1.9,0,10.5,0,10.5h14.1l-1.1,15.5h-13v45.8H38.5
	V57.1H28.5V41.6h10.1V28.2c0-1.5-0.1-2.8,0.4-4.2c0.2-0.5,0.3-1,0.5-1.5c0.5-1.4,1.3-2.6,2.1-3.8c2.6-3.5,6.5-5.5,10.7-6.2
	c1.3-0.2,2.7-0.3,4-0.3c15.9,0,15.9,0,15.9,0S72.2,27.8,72.2,27.9z"/>
</svg>
