<?xml version="1.0" encoding="utf-8"?>
<!-- Generator: Adobe Illustrator 26.5.0, SVG Export Plug-In . SVG Version: 6.00 Build 0)  -->
<svg version="1.1" id="Calque_1" xmlns="http://www.w3.org/2000/svg" xmlns:xlink="http://www.w3.org/1999/xlink" x="0px" y="0px"
	 viewBox="0 0 50 50" style="enable-background:new 0 0 50 50;" xml:space="preserve">
<style type="text/css">
	.st0{fill:#FFFFFF;}
	.st1{fill:#FFFFFF;stroke:#FFFFFF;stroke-miterlimit:10;}
</style>
<g>
	<path class="st0" d="M15.6,13.6c-1.7,0-3,1.1-3,2.5c0,1.5,1.3,2.6,3,2.6c1.8,0,3-1.1,3-2.6C18.5,14.6,17.3,13.6,15.6,13.6z"/>
	<rect x="12.7" y="20.4" class="st0" width="6" height="17"/>
	<path class="st1" d="M41,3.5H9C6,3.5,3.5,6,3.5,9v32c0,3,2.5,5.5,5.5,5.5h32c3,0,5.5-2.5,5.5-5.5V9C46.5,6,44,3.5,41,3.5z M45.5,41
		c0,2.5-2,4.5-4.5,4.5H9c-2.5,0-4.5-2-4.5-4.5V9c0-2.5,2-4.5,4.5-4.5h32c2.5,0,4.5,2,4.5,4.5V41z"/>
	<path class="st0" d="M30.8,20.4c-2.2,0-3.7,0.9-4.5,1.6v-1.6h-6v17h6v-8.9c0-1.4,0.6-3,2.5-3c1.9,0,2.6,1.6,2.6,3v8.9h6v-9.6
		C37.3,23.3,34.8,20.4,30.8,20.4z"/>
</g>
</svg>
