<?xml version="1.0" encoding="utf-8"?>
<!-- Generator: Adobe Illustrator 21.0.2, SVG Export Plug-In . SVG Version: 6.00 Build 0)  -->
<svg version="1.1" id="Calque_1" xmlns="http://www.w3.org/2000/svg" xmlns:xlink="http://www.w3.org/1999/xlink" x="0px" y="0px"
	 viewBox="0 0 190.5 99.6" style="enable-background:new 0 0 190.5 99.6;" xml:space="preserve">
<style type="text/css">
	.st0{fill:#1D1D1B;}
	.st1{opacity:0.48;}
	.st2{fill:#D9D9D9;}
</style>
<g id="XMLID_368_">
	<polygon id="XMLID_369_" class="st0" points="190.5,90.9 190.5,94.4 169.2,94.4 169.2,93.8 169.1,0.1 189.3,0.1 189.3,3.6 
		179.7,3.6 179.7,90.9 	"/>
</g>
<g id="XMLID_366_">
	<polygon id="XMLID_367_" class="st0" points="141.2,68.8 141.2,96.4 138.6,90.4 101.6,4.7 84.7,0 111.4,0 111.6,0.4 	"/>
</g>
<g id="XMLID_364_">
	<polygon id="XMLID_365_" class="st0" points="107.7,90.9 107.7,94.4 102.5,94.4 102.5,99.6 98.9,99.6 98.9,94.4 93.8,94.4 
		93.8,90.9 98.9,90.9 98.9,85.7 102.5,85.7 102.5,90.9 	"/>
</g>
<g id="XMLID_362_">
	<path id="XMLID_363_" class="st0" d="M61.9,17.4V6.7C57.1,4.9,52.1,4.1,47,4.1c-13.3,0-25.5,5.9-33.8,16.2l0,0
		c-0.2,0.3-0.4,0.5-0.6,0.7l0.5,1.1l29,67.1l0.4,0.9c0.2,0.1,1.2,0.2,1.4,0.2c1,0.1,2,0.1,3.1,0.1c5.8,0,11.5-1.2,16.9-3.4l0.9-0.4
		v3.7l-0.4,0.2C58.9,92.8,52.9,94,46.7,94c-0.9,0-1.9,0-2.8-0.1l-0.3,0C19.1,92.3,0,71.8,0,47.3c0-10.9,3.8-21.5,10.8-29.8
		c2.2-2.7,4.7-5.1,7.5-7.2c7.9-6.1,17.3-9.4,27.3-9.7c0.4,0,0.8,0,1.2,0H47c0.4,0,0.8,0,1.2,0C53.7,0.7,59,1.8,64.1,3.9l1.2,0.4
		l0,0.5v12.7H61.9z"/>
</g>
<g id="XMLID_340_" class="st1">
	<path id="XMLID_361_" class="st2" d="M64.3,88.2v1.6c-0.1,0-0.1,0-0.2,0.1v-1.6C64.2,88.3,64.3,88.2,64.3,88.2z"/>
	<polygon id="XMLID_348_" class="st0" points="63.6,90.8 63.5,89.9 63.5,87.9 64,87.6 64.9,87.3 65,88.2 65,90.2 64.5,90.5 	"/>
</g>
<path id="XMLID_332_" class="st0" d="M13.1,22.1L12.3,22L12,21.9c0,0,0-0.1,0.2-0.3c0.1-0.1,0.2-0.3,0.5-0.6L13.1,22.1z"/>
</svg>
